<?xml version="1.0" standalone="no"?>
<!DOCTYPE svg PUBLIC "-//W3C//DTD SVG 20010904//EN"
 "http://www.w3.org/TR/2001/REC-SVG-20010904/DTD/svg10.dtd">
<svg version="1.0" xmlns="http://www.w3.org/2000/svg"
 width="626.000000pt" height="352.000000pt" viewBox="0 0 626.000000 352.000000"
 preserveAspectRatio="xMidYMid meet">

<g transform="translate(0.000000,352.000000) scale(0.100000,-0.100000)"
fill="#000000" stroke="none">
<path d="M0 1760 l0 -1760 3130 0 3130 0 0 1760 0 1760 -3130 0 -3130 0 0
-1760z m630 1293 c45 -40 67 -73 50 -73 -16 0 -100 81 -100 96 0 20 6 18 50
-23z m2110 -208 c0 -8 -7 -15 -15 -15 -8 0 -15 7 -15 15 0 8 7 15 15 15 8 0
15 -7 15 -15z m-1190 -192 c0 -6 7 -18 15 -26 13 -14 9 -17 -35 -26 -74 -16
-113 -35 -160 -77 -104 -95 -130 -168 -130 -372 0 -79 3 -142 8 -140 4 2 19
10 35 17 l27 14 0 137 c0 133 1 139 31 198 53 107 144 163 258 161 l56 -2 -71
-7 c-83 -9 -124 -28 -182 -83 -65 -63 -82 -120 -82 -276 l0 -128 -40 -27 c-22
-14 -42 -26 -45 -26 -3 0 -5 69 -5 154 0 125 4 166 20 218 35 115 122 202 239
239 41 13 49 18 29 18 -29 1 -29 8 -6 58 10 21 12 21 24 5 7 -9 14 -22 14 -29z
m129 -9 c-9 -11 -15 -12 -25 -3 -11 9 -12 15 -3 25 9 11 15 12 25 3 11 -9 12
-15 3 -25z m2283 21 c2 -6 -26 -11 -66 -13 -73 -3 -101 2 -92 17 8 12 155 9
158 -4z m-3142 -31 c0 -16 -16 -19 -25 -4 -8 13 4 32 16 25 5 -4 9 -13 9 -21z
m584 -10 c20 -8 9 -34 -15 -34 -18 0 -26 20 -12 33 8 8 8 8 27 1z m414 -17 c2
-12 -3 -17 -17 -17 -12 0 -21 6 -21 13 0 31 32 34 38 4z m-8 -63 c0 -2 -9 0
-20 6 -11 6 -20 13 -20 16 0 2 9 0 20 -6 11 -6 20 -13 20 -16z m-507 -19 c7
-17 -8 -29 -28 -21 -17 6 -9 36 10 36 7 0 15 -7 18 -15z m620 1 c8 -21 -17
-40 -31 -23 -9 10 -8 17 0 25 16 16 25 15 31 -2z m-236 -2 c-3 -3 -12 -4 -19
-1 -8 3 -5 6 6 6 11 1 17 -2 13 -5z m194 -46 c31 -43 17 -34 -21 15 -19 23
-26 36 -17 28 10 -8 27 -27 38 -43z m-61 -48 c51 -71 60 -108 60 -247 l0 -132
29 -20 c16 -12 32 -21 35 -21 3 0 7 69 9 153 l3 152 2 -167 2 -168 -45 32 -45
32 0 135 c0 124 -2 141 -26 190 -13 30 -44 73 -67 95 -34 32 -36 35 -10 17 18
-12 41 -35 53 -51z m2620 20 c0 -6 -50 -9 -125 -9 -69 0 -125 5 -125 10 0 5
56 9 125 9 75 0 125 -4 125 -10z m-2510 -52 c11 -24 19 -52 19 -63 0 -11 -6
-2 -13 20 -7 22 -18 50 -25 63 -6 12 -9 22 -6 22 3 0 15 -19 25 -42z m-697 8
c3 -8 -1 -20 -9 -27 -13 -10 -17 -10 -24 1 -5 9 -5 20 2 27 14 17 25 16 31 -1z
m757 -26 c-19 -12 -35 3 -26 26 6 17 8 17 24 0 15 -15 15 -18 2 -26z m-782
-123 c2 -12 -3 -17 -17 -17 -12 0 -21 6 -21 13 0 31 32 34 38 4z m811 10 c13
-16 5 -27 -21 -27 -18 0 -25 20 -11 33 10 10 19 8 32 -6z m-954 -12 c0 -11
-129 -20 -152 -11 -8 3 -11 11 -8 16 9 14 160 9 160 -5z m142 -131 c8 -21 -13
-42 -28 -27 -13 13 -5 43 11 43 6 0 13 -7 17 -16z m810 -18 c-4 -9 -11 -16
-17 -16 -17 0 -24 31 -9 41 18 11 34 -5 26 -25z m-242 -47 c39 -13 99 -43 134
-66 72 -49 69 -47 68 -30 -1 40 4 47 33 47 17 0 30 -5 30 -10 0 -6 10 -15 23
-20 17 -7 18 -9 5 -9 -10 -1 -18 -5 -18 -10 0 -10 -39 -27 -54 -23 -4 2 1 -10
13 -25 99 -129 133 -209 146 -340 20 -196 -85 -407 -256 -515 -57 -37 -158
-78 -187 -77 -9 0 8 8 38 18 215 70 357 233 391 452 12 81 1 188 -27 260 -15
37 -19 40 -29 25 -11 -14 -15 -12 -29 24 -20 50 -20 56 -1 40 24 -20 17 4 -14
46 -105 143 -241 217 -426 234 l-90 9 90 -4 c60 -2 113 -11 160 -26z m-309 5
c-139 -34 -289 -148 -353 -269 -73 -139 -87 -296 -39 -438 32 -95 62 -145 135
-222 l56 -60 -54 50 c-142 132 -205 323 -167 505 43 201 179 361 365 426 36
13 77 23 91 23 14 0 -1 -7 -34 -15z m225 -58 c235 -50 390 -239 390 -476 0
-83 -29 -211 -50 -225 -5 -3 2 25 15 63 44 125 28 290 -39 404 -37 64 -137
154 -207 187 -179 85 -387 52 -530 -85 -102 -97 -150 -207 -150 -341 0 -144
45 -251 149 -353 36 -36 52 -55 34 -42 -55 39 -114 114 -151 190 -31 65 -36
86 -40 172 -4 81 -1 110 17 168 61 202 249 343 466 351 17 0 60 -6 96 -13z
m-481 -31 c0 -27 -26 -35 -48 -13 -9 9 -7 14 6 24 26 21 42 16 42 -11z m2480
5 c0 -5 -4 -10 -10 -10 -5 0 -10 5 -10 10 0 6 5 10 10 10 6 0 10 -4 10 -10z
m-2080 -31 c0 -5 -7 -9 -15 -9 -15 0 -20 12 -9 23 8 8 24 -1 24 -14z m-170
-29 c0 -5 -4 -10 -10 -10 -5 0 -10 5 -10 10 0 6 5 10 10 10 6 0 10 -4 10 -10z
m330 0 c0 -5 -4 -10 -10 -10 -5 0 -10 5 -10 10 0 6 5 10 10 10 6 0 10 -4 10
-10z m-661 -66 c-9 -11 -15 -12 -25 -3 -11 9 -12 15 -3 25 9 11 15 12 25 3 11
-9 12 -15 3 -25z m1899 19 c-4 -22 -22 -20 -26 1 -2 10 3 16 13 16 10 0 15 -7
13 -17z m-1381 0 c-20 -2 -52 -2 -70 0 -17 2 0 4 38 4 39 0 53 -2 32 -4z m488
-13 c0 -8 -8 -16 -17 -18 -13 -2 -18 3 -18 18 0 15 5 20 18 18 9 -2 17 -10 17
-18z m-598 4 c-3 -3 -12 -4 -19 -1 -8 3 -5 6 6 6 11 1 17 -2 13 -5z m180 0
c-3 -3 -12 -4 -19 -1 -8 3 -5 6 6 6 11 1 17 -2 13 -5z m-227 -14 c-8 -5 -19
-10 -25 -10 -5 0 -3 5 5 10 8 5 20 10 25 10 6 0 3 -5 -5 -10z m310 -16 c85
-57 171 -181 169 -244 0 -17 -4 -10 -13 21 -24 88 -74 155 -161 213 -22 14
-35 26 -30 26 6 0 22 -7 35 -16z m-480 -9 c0 -8 -4 -15 -9 -15 -13 0 -22 16
-14 24 11 11 23 6 23 -9z m110 -3 c-54 -37 -93 -78 -121 -126 -16 -28 -29 -46
-29 -40 0 39 136 187 170 183 3 0 -6 -8 -20 -17z m502 3 c0 -5 -5 -11 -11 -13
-6 -2 -11 4 -11 13 0 9 5 15 11 13 6 -2 11 -8 11 -13z m-1377 -35 c-5 -8 -11
-8 -17 -2 -6 6 -7 16 -3 22 5 8 11 8 17 2 6 -6 7 -16 3 -22z m512 -46 c7 -18
-17 -38 -31 -24 -11 11 -1 40 14 40 6 0 13 -7 17 -16z m1131 3 c15 -17 -1 -39
-21 -31 -17 6 -22 25 -10 37 10 10 19 8 31 -6z m-1483 -57 c-5 -8 -11 -8 -17
-2 -6 6 -7 16 -3 22 5 8 11 8 17 2 6 -6 7 -16 3 -22z m512 -16 c-9 -9 -28 6
-21 18 4 6 10 6 17 -1 6 -6 8 -13 4 -17z m803 10 c0 -9 -5 -14 -12 -12 -18 6
-21 28 -4 28 9 0 16 -7 16 -16z m-322 -21 c93 -60 108 -178 34 -256 -39 -41
-74 -57 -127 -57 -114 0 -199 111 -165 217 36 112 162 158 258 96z m-1466 -58
c0 -5 -5 -11 -11 -13 -6 -2 -11 4 -11 13 0 9 5 15 11 13 6 -2 11 -8 11 -13z
m787 -21 c-9 -11 -15 -12 -25 -3 -11 9 -12 15 -3 25 9 11 15 12 25 3 11 -9 12
-15 3 -25z m1203 -6 c-17 -17 -47 9 -30 29 10 12 13 12 27 -1 11 -12 12 -19 3
-28z m-965 0 c-3 -7 -5 -2 -5 12 0 14 2 19 5 13 2 -7 2 -19 0 -25z m710 -85
c-2 -16 -4 -5 -4 22 0 28 2 40 4 28 2 -13 2 -35 0 -50z m-720 20 c-3 -10 -5
-4 -5 12 0 17 2 24 5 18 2 -7 2 -21 0 -30z m803 6 c0 -5 -7 -9 -15 -9 -15 0
-20 12 -9 23 8 8 24 -1 24 -14z m-862 0 c-2 -6 -8 -10 -13 -10 -5 0 -11 4 -13
10 -2 6 4 11 13 11 9 0 15 -5 13 -11z m-163 -69 c0 -8 -8 -16 -17 -18 -13 -2
-18 3 -18 18 0 15 5 20 18 18 9 -2 17 -10 17 -18z m232 -12 c-3 -7 -5 -2 -5
12 0 14 2 19 5 13 2 -7 2 -19 0 -25z m971 15 c5 -17 -26 -29 -40 -15 -6 6 -7
15 -3 22 9 14 37 9 43 -7z m-291 -77 c-26 -56 -95 -139 -131 -158 -12 -6 2 10
31 36 51 46 112 147 114 190 1 17 2 18 6 4 2 -10 -7 -42 -20 -72z m-1668 -15
c-15 -5 -22 6 -14 19 6 9 10 9 16 -1 5 -8 4 -15 -2 -18z m1093 -98 c18 -17 56
-43 83 -57 28 -14 45 -26 40 -26 -19 0 -90 42 -124 74 -35 33 -91 113 -91 130
0 6 13 -11 29 -39 16 -27 44 -64 63 -82z m-145 81 c-9 -9 -28 6 -21 18 4 6 10
6 17 -1 6 -6 8 -13 4 -17z m800 0 c-9 -9 -28 6 -21 18 4 6 10 6 17 -1 6 -6 8
-13 4 -17z m-951 -26 c8 -13 -16 -38 -37 -38 -13 0 -19 7 -19 23 0 13 3 26 6
29 7 8 43 -2 50 -14z m1126 -11 c4 -18 0 -23 -14 -22 -41 3 -49 45 -9 45 12 0
20 -9 23 -23z m998 8 c0 -8 -7 -15 -15 -15 -8 0 -15 7 -15 15 0 8 7 15 15 15
8 0 15 -7 15 -15z m-235 -1 c37 -15 -14 -24 -132 -24 -128 0 -173 7 -137 21
23 9 246 11 269 3z m-942 -55 c-26 -45 -127 -136 -182 -163 -86 -44 -157 -59
-250 -53 -86 5 -178 31 -217 62 -11 10 -2 8 23 -5 213 -103 477 -39 607 149
34 48 45 54 19 10z m-703 -44 c0 -8 -4 -15 -10 -15 -5 0 -10 7 -10 15 0 8 5
15 10 15 6 0 10 -7 10 -15z m612 0 c0 -5 -5 -11 -11 -13 -6 -2 -11 4 -11 13 0
9 5 15 11 13 6 -2 11 -8 11 -13z m-792 -36 c0 -14 -5 -19 -17 -17 -26 5 -29
38 -4 38 15 0 21 -6 21 -21z m990 0 c0 -25 -33 -22 -38 4 -2 12 3 17 17 17 15
0 21 -6 21 -21z m815 -29 c-5 -8 -11 -8 -17 -2 -6 6 -7 16 -3 22 5 8 11 8 17
2 6 -6 7 -16 3 -22z m415 4 c0 -16 -16 -19 -25 -4 -8 13 4 32 16 25 5 -4 9
-13 9 -21z m-1712 9 c-21 -2 -55 -2 -75 0 -21 2 -4 4 37 4 41 0 58 -2 38 -4z
m-188 -43 c0 -5 -4 -10 -10 -10 -5 0 -10 5 -10 10 0 6 5 10 10 10 6 0 10 -4
10 -10z m330 0 c0 -5 -4 -10 -10 -10 -5 0 -10 5 -10 10 0 6 5 10 10 10 6 0 10
-4 10 -10z m-558 -62 c-16 -16 -37 4 -28 28 6 16 8 16 23 1 13 -13 15 -19 5
-29z m396 31 c-2 -6 -8 -10 -13 -10 -5 0 -11 4 -13 10 -2 6 4 11 13 11 9 0 15
-5 13 -11z m402 -20 c0 -22 -25 -26 -33 -5 -6 16 12 38 25 30 4 -3 8 -14 8
-25z m-675 -79 c0 -8 -8 -16 -17 -18 -13 -2 -18 3 -18 18 0 15 5 20 18 18 9
-2 17 -10 17 -18z m558 14 c9 -9 -4 -34 -18 -34 -14 0 -27 25 -18 34 4 3 12 6
18 6 6 0 14 -3 18 -6z m-406 -20 c-3 -3 -12 -4 -19 -1 -8 3 -5 6 6 6 11 1 17
-2 13 -5z m158 -14 c-27 -4 -72 -4 -100 0 -40 6 -30 7 50 7 80 0 90 -1 50 -7z
m-1163 -32 c-6 -6 -15 -9 -18 -5 -4 3 -4 14 0 23 5 13 9 15 18 6 9 -9 9 -15 0
-24z m988 8 c0 -20 -19 -31 -32 -18 -6 6 -7 15 -4 21 10 16 36 13 36 -3z m285
-6 c0 -22 -29 -18 -33 3 -3 14 1 18 15 15 10 -2 18 -10 18 -18z m-137 -13 c2
-9 -3 -23 -11 -31 -12 -13 -16 -12 -27 9 -7 13 -9 28 -5 35 10 16 39 8 43 -13z
m-1210 -278 c-2 -6 -8 -10 -13 -10 -5 0 -11 4 -13 10 -2 6 4 11 13 11 9 0 15
-5 13 -11z m172 -64 c0 -8 -7 -15 -15 -15 -16 0 -20 12 -8 23 11 12 23 8 23
-8z m1030 -51 c0 -8 -7 -14 -15 -14 -15 0 -21 21 -9 33 10 9 24 -2 24 -19z
m1340 -104 c0 -5 -4 -10 -10 -10 -5 0 -10 5 -10 10 0 6 5 10 10 10 6 0 10 -4
10 -10z m-700 -102 c0 -10 -29 -23 -36 -15 -3 2 -2 17 2 32 7 26 8 27 20 10 8
-11 14 -23 14 -27z m-1520 20 c0 -14 -79 -98 -92 -98 -19 0 -5 27 34 67 43 44
58 52 58 31z m1740 -28 c0 -5 -7 -10 -15 -10 -8 0 -15 5 -15 10 0 6 7 10 15
10 8 0 15 -4 15 -10z m120 -119 c0 -68 -14 -89 -24 -33 -10 63 -7 92 9 92 12
0 15 -13 15 -59z"/>
<path d="M1535 1666 c-37 -16 -82 -68 -91 -102 -10 -39 1 -109 22 -138 24 -32
90 -66 131 -66 45 0 113 40 135 80 30 54 21 140 -18 181 -52 56 -117 72 -179
45z m128 -45 c29 -11 57 -66 57 -111 0 -24 -9 -41 -36 -66 -30 -29 -43 -34
-83 -34 -39 0 -52 5 -78 31 -44 42 -50 79 -21 131 34 61 87 77 161 49z"/>
</g>
</svg>
